<svg width="1200" height="720" viewBox="0 0 1200 720" fill="none" xmlns="http://www.w3.org/2000/svg">
  <rect width="1200" height="720" rx="36" fill="#0E1324"/>
  <rect x="24" y="24" width="1152" height="672" rx="28" fill="url(#background)"/>
  <circle cx="1018" cy="142" r="112" fill="#B66BFF" fill-opacity="0.18"/>
  <circle cx="216" cy="584" r="138" fill="#2ED3C6" fill-opacity="0.14"/>
  <rect x="86" y="108" width="1028" height="504" rx="28" fill="#121A2F" stroke="#5F77FF" stroke-opacity="0.36" stroke-width="2"/>
  <rect x="126" y="150" width="434" height="420" rx="24" fill="#0C1222" stroke="#38D6C5" stroke-opacity="0.35"/>
  <text x="160" y="224" fill="#EAF1FF" font-family="Segoe UI, Arial, sans-serif" font-size="54" font-weight="700">CHINOOK APP</text>
  <text x="160" y="278" fill="#8DA3C6" font-family="Segoe UI, Arial, sans-serif" font-size="28">Express backend for artists, albums, tracks and themes</text>
  <rect x="160" y="330" width="164" height="44" rx="22" fill="#202C4E"/>
  <text x="191" y="359" fill="#9EE9E2" font-family="Segoe UI, Arial, sans-serif" font-size="24" font-weight="600">CRUD API</text>
  <rect x="340" y="330" width="150" height="44" rx="22" fill="#202C4E"/>
  <text x="373" y="359" fill="#B6C4FF" font-family="Segoe UI, Arial, sans-serif" font-size="24" font-weight="600">Validation</text>
  <rect x="160" y="394" width="190" height="44" rx="22" fill="#202C4E"/>
  <text x="191" y="423" fill="#FFD48C" font-family="Segoe UI, Arial, sans-serif" font-size="24" font-weight="600">Artist Search</text>
  <rect x="368" y="394" width="146" height="44" rx="22" fill="#202C4E"/>
  <text x="401" y="423" fill="#F6A8FF" font-family="Segoe UI, Arial, sans-serif" font-size="24" font-weight="600">Routers</text>
  <text x="160" y="500" fill="#38D6C5" font-family="Consolas, monospace" font-size="24">POST /artists</text>
  <text x="160" y="538" fill="#38D6C5" font-family="Consolas, monospace" font-size="24">GET /artists/search?q=rock</text>
  <rect x="626" y="162" width="410" height="356" rx="24" fill="#0B1020" stroke="#7F92FF" stroke-opacity="0.4"/>
  <rect x="660" y="198" width="342" height="58" rx="14" fill="#16213C"/>
  <circle cx="696" cy="227" r="12" fill="#FF6D8A"/>
  <circle cx="738" cy="227" r="12" fill="#FFD56A"/>
  <circle cx="780" cy="227" r="12" fill="#43E0A1"/>
  <rect x="660" y="292" width="148" height="190" rx="18" fill="#172546"/>
  <rect x="826" y="292" width="176" height="82" rx="18" fill="#1D2E5C"/>
  <rect x="826" y="390" width="176" height="92" rx="18" fill="#16233F"/>
  <circle cx="734" cy="386" r="54" stroke="#38D6C5" stroke-width="18"/>
  <circle cx="734" cy="386" r="22" fill="#38D6C5" fill-opacity="0.4"/>
  <path d="M883 322H956" stroke="#B5C3FF" stroke-width="12" stroke-linecap="round"/>
  <path d="M883 349H973" stroke="#6F89C6" stroke-width="12" stroke-linecap="round"/>
  <path d="M858 420H970" stroke="#8FE0D8" stroke-width="12" stroke-linecap="round"/>
  <path d="M858 447H930" stroke="#6F89C6" stroke-width="12" stroke-linecap="round"/>
  <defs>
    <linearGradient id="background" x1="60" y1="82" x2="1118" y2="654" gradientUnits="userSpaceOnUse">
      <stop stop-color="#0C1530"/>
      <stop offset="1" stop-color="#1A1033"/>
    </linearGradient>
  </defs>
</svg>