<svg width="1200" height="720" viewBox="0 0 1200 720" fill="none" xmlns="http://www.w3.org/2000/svg">
  <rect width="1200" height="720" rx="36" fill="#0A0F1E"/>
  <rect x="24" y="24" width="1152" height="672" rx="28" fill="url(#bg)"/>
  <circle cx="1048" cy="126" r="132" fill="#4B88FF" fill-opacity="0.16"/>
  <circle cx="216" cy="586" r="146" fill="#00D7A5" fill-opacity="0.12"/>
  <text x="108" y="150" fill="#F6F9FF" font-family="Segoe UI, Arial, sans-serif" font-size="60" font-weight="700">VIDEOSPHERE</text>
  <text x="108" y="202" fill="#ADC0E8" font-family="Segoe UI, Arial, sans-serif" font-size="28">Upload once, distribute everywhere with a modern Next.js workflow</text>
  <rect x="108" y="246" width="174" height="44" rx="22" fill="#152449"/>
  <text x="145" y="275" fill="#9FC0FF" font-family="Segoe UI, Arial, sans-serif" font-size="24" font-weight="600">Next.js 16</text>
  <rect x="296" y="246" width="176" height="44" rx="22" fill="#152449"/>
  <text x="331" y="275" fill="#82F0D1" font-family="Segoe UI, Arial, sans-serif" font-size="24" font-weight="600">Cloudflare R2</text>
  <rect x="486" y="246" width="150" height="44" rx="22" fill="#152449"/>
  <text x="524" y="275" fill="#F8C980" font-family="Segoe UI, Arial, sans-serif" font-size="24" font-weight="600">Docker</text>
  <rect x="108" y="328" width="414" height="252" rx="26" fill="#0E152A" stroke="#84A6FF" stroke-opacity="0.4"/>
  <circle cx="316" cy="454" r="86" fill="#152449"/>
  <polygon points="292,408 292,500 370,454" fill="#F6F9FF"/>
  <circle cx="316" cy="454" r="116" stroke="#00D7A5" stroke-opacity="0.5" stroke-width="16" stroke-dasharray="20 18"/>
  <rect x="618" y="188" width="474" height="392" rx="28" fill="#0E1529" stroke="#2A4D99" stroke-opacity="0.55"/>
  <rect x="660" y="238" width="126" height="230" rx="20" fill="#17274F"/>
  <rect x="816" y="238" width="126" height="230" rx="20" fill="#17274F"/>
  <rect x="972" y="238" width="78" height="230" rx="20" fill="#17274F"/>
  <text x="690" y="358" fill="#FFFFFF" font-family="Segoe UI, Arial, sans-serif" font-size="42" font-weight="700">YT</text>
  <text x="846" y="358" fill="#FFFFFF" font-family="Segoe UI, Arial, sans-serif" font-size="38" font-weight="700">Vimeo</text>
  <text x="989" y="358" fill="#FFFFFF" font-family="Segoe UI, Arial, sans-serif" font-size="26" font-weight="700">GDrive</text>
  <path d="M722 504C780 532 824 532 880 504" stroke="#82F0D1" stroke-width="12" stroke-linecap="round"/>
  <path d="M878 504C936 532 968 532 1024 504" stroke="#82F0D1" stroke-width="12" stroke-linecap="round"/>
  <path d="M722 142C800 110 878 110 958 142" stroke="#4B88FF" stroke-width="10" stroke-linecap="round" stroke-dasharray="10 16"/>
  <defs>
    <linearGradient id="bg" x1="64" y1="44" x2="1122" y2="676" gradientUnits="userSpaceOnUse">
      <stop stop-color="#09152C"/>
      <stop offset="1" stop-color="#15102F"/>
    </linearGradient>
  </defs>
</svg>